<svg width="911" height="743" viewBox="0 0 911 743" fill="none" xmlns="http://www.w3.org/2000/svg">
<path d="M678.421 624.061C715.55 593.46 721.41 549.469 737.043 511.221C746.812 486.356 764.4 465.319 781.987 444.279C758.536 509.307 772.215 555.208 715.55 601.11C725.319 597.285 735.088 589.635 742.906 583.898C787.847 547.558 854.284 541.822 881.641 482.531C873.826 526.519 838.654 564.772 801.526 589.635C764.399 612.586 717.501 610.674 678.421 624.061ZM580.718 647.012C574.858 645.098 567.04 645.098 559.225 643.187C586.582 639.362 611.984 629.8 631.525 612.586C660.836 585.81 686.239 559.034 717.501 537.996C684.284 603.021 672.56 629.8 617.847 641.273C617.847 641.273 633.477 639.362 641.295 637.45C699.917 625.972 770.263 641.273 813.25 593.46C795.665 624.061 762.445 648.923 731.18 660.401C680.375 675.702 627.617 658.487 580.718 647.012ZM502.557 643.187C596.351 643.187 645.204 723.515 737.043 669.963C692.099 723.515 619.799 727.34 561.179 691C537.729 675.702 516.236 654.662 486.925 654.662C441.981 654.662 393.131 700.564 352.096 742.64C344.279 736.901 338.418 731.165 332.555 725.428C375.544 685.263 438.075 643.187 502.557 643.187ZM766.354 553.295C766.354 553.295 778.078 532.258 781.987 518.868C795.665 467.23 787.847 404.114 811.298 354.387C807.389 383.077 819.113 407.939 821.067 434.715C824.976 471.055 811.298 495.917 801.526 513.132C801.526 513.132 815.204 495.917 821.067 486.356C848.424 444.279 905.091 415.592 908.998 363.951C916.815 476.792 836.7 507.395 766.354 553.295ZM793.71 218.596C785.893 203.295 781.987 184.17 778.078 166.957C781.987 174.607 785.893 182.257 791.756 187.995C828.882 218.596 850.378 235.808 860.148 283.623L856.239 241.547C852.332 199.47 875.78 153.569 850.378 117.23C875.78 144.006 889.459 178.432 889.459 212.858C889.459 258.759 862.102 291.274 860.148 335.262C852.332 289.36 813.25 256.847 793.71 218.596ZM807.389 134.443C789.802 119.142 768.308 105.754 752.676 86.6286C735.089 63.6778 719.456 36.9018 696.008 15.8635C727.273 29.2515 762.445 40.7269 783.941 73.2406C795.665 92.3663 797.619 115.317 807.389 134.443ZM846.469 226.246C838.654 210.946 824.976 195.645 811.298 184.17C776.123 159.306 740.952 126.793 738.997 84.7161C758.536 130.618 819.113 138.268 832.791 186.082C832.791 186.082 824.976 157.394 823.021 151.656C813.25 119.142 815.204 80.8909 781.987 59.8526C846.469 73.2406 850.378 142.093 846.469 193.733C846.469 205.208 844.515 214.771 846.469 226.246ZM836.7 448.104C836.7 448.104 840.606 411.764 834.745 396.464C819.113 350.562 803.48 300.835 805.434 253.022C821.067 310.399 869.917 329.525 848.424 407.939C856.239 392.641 858.193 375.427 864.056 360.126C875.78 318.05 908.998 281.71 899.228 231.983C914.861 275.973 914.861 310.399 899.228 356.301C889.459 390.727 854.284 415.592 836.7 448.104Z" fill="#2A459C"/>
<path d="M232.883 624.061C195.756 593.46 189.894 549.469 174.261 511.221C164.491 486.356 146.905 465.319 129.319 444.279C152.767 509.307 139.089 555.208 195.756 601.11C185.986 597.285 176.216 589.635 168.4 583.898C123.456 547.558 57.019 541.822 29.6621 482.531C37.4785 526.519 72.6512 564.772 109.778 589.635C146.905 612.586 193.802 610.674 232.883 624.061ZM330.586 647.012C336.447 645.098 344.264 645.098 352.079 643.187C324.723 639.362 299.321 629.8 279.779 612.586C250.471 585.81 225.067 559.034 193.802 537.996C227.021 603.021 238.745 629.8 293.457 641.273C293.457 641.273 277.827 639.362 270.01 637.45C211.389 625.972 141.043 641.273 98.0539 593.46C115.64 624.061 148.859 648.923 180.124 660.401C230.929 675.702 283.688 658.487 330.586 647.012ZM408.747 643.187C314.953 643.187 266.101 723.515 174.261 669.963C219.205 723.515 291.505 727.34 350.125 691C373.575 675.702 395.069 654.662 424.38 654.662C469.323 654.662 518.173 700.564 559.208 742.64C567.026 736.901 572.886 731.165 578.75 725.428C535.76 685.263 473.23 643.187 408.747 643.187ZM144.951 553.295C144.951 553.295 133.227 532.258 129.319 518.868C115.64 467.23 123.456 404.114 100.008 354.387C103.916 383.077 92.1917 407.939 90.2375 434.715C86.3295 471.055 100.008 495.917 109.778 513.132C109.778 513.132 96.0997 495.917 90.2375 486.356C62.8809 444.279 6.21371 415.592 2.30561 363.951C-5.51057 476.792 74.6053 507.395 144.951 553.295ZM117.594 218.596C125.41 203.295 129.319 184.17 133.227 166.957C129.319 174.607 125.41 182.257 119.548 187.995C82.4214 218.596 60.927 235.808 51.1568 283.623L55.0648 241.547C58.9729 199.47 35.5243 153.569 60.927 117.23C35.5243 144.006 21.846 178.432 21.846 212.858C21.846 258.759 49.2026 291.274 51.1568 335.262C58.9729 289.36 98.0539 256.847 117.594 218.596ZM103.916 134.443C121.502 119.142 142.997 105.754 158.629 86.6286C176.216 63.6778 191.848 36.9018 215.297 15.8635C184.032 29.2515 148.859 40.7269 127.365 73.2406C115.64 92.3663 113.686 115.317 103.916 134.443ZM64.8351 226.246C72.6512 210.946 86.3295 195.645 100.008 184.17C135.181 159.306 170.353 126.793 172.308 84.7161C152.767 130.618 92.1917 138.268 78.5134 186.082C78.5134 186.082 86.3295 157.394 88.2836 151.656C98.0539 119.142 96.0997 80.8909 129.319 59.8526C64.8351 73.2406 60.927 142.093 64.8351 193.733C64.8351 205.208 66.789 214.771 64.8351 226.246ZM74.6053 448.104C74.6053 448.104 70.6973 411.764 76.5592 396.464C92.1917 350.562 107.824 300.835 105.87 253.022C90.2375 310.399 41.3865 329.525 62.8809 407.939C55.0648 392.641 53.1107 375.427 47.2487 360.126C35.5243 318.05 2.30561 281.71 12.0758 231.983C-3.55653 275.973 -3.55653 310.399 12.0758 356.301C21.846 390.727 57.019 415.592 74.6053 448.104Z" fill="#2A459C"/>
<mask id="mask0_75_18" style="mask-type:alpha" maskUnits="userSpaceOnUse" x="151" y="0" width="615" height="615">
<circle cx="458.639" cy="307.47" r="306.749" fill="#D9D9D9"/>
</mask>
<g mask="url(#mask0_75_18)">
<path fill-rule="evenodd" clip-rule="evenodd" d="M409.369 182.65L408.667 183.985L390.526 187.813L390.516 187.815L373.703 191.771L357.904 192.756L337.166 201.589L327.213 208.935L317.709 219.483L306.889 232.918L300.705 245.557V254.105L302.444 260.109L308.156 263.285L316.174 265.672V267.74L314.713 272.123L316.067 277.238H319.491L322.31 274.886L320.564 265.21L315.557 263.332L307.652 260.808L304.219 254.286V245.322L311.896 232.404L322.48 218.856L336.693 206.977L355.809 199.33H366.267V207.524L358.201 219.411L352.969 230.713L351.454 237.052L351.452 237.06L348.832 246.628L346.463 251.986L335.309 260.65V279.04L338.822 280.044V285.934L335.974 291.123L330.533 295.781L325.656 302.318L319.714 305.019L313.78 312.586V317.833L151.891 315.848L151.891 361.301H172.975L178.118 367.678V380.99L183.945 379.754L188.693 376.786H196.993L198.701 381.482V387.313L197.079 392.99L191.84 397.841V411.09H206.346V422.606H193.604V427.098L197.031 428.24L200.857 439.115V451.47H204.239V448.335H212.423V463.427H216.98L216.984 447.158H227.139L238.54 451.482L249.238 453.038H268.268L270.296 451.686V448.031L260.081 446.707L255.895 445.511L252.204 443.774L253.685 435.737L257.328 434.024H267.944L267.943 431.867H280.22L282.853 435.717L286.32 437.96V443.04H296.519L301.014 444.754V447.157H304.005V444.699L311.567 443.063L316.871 440.407L319.623 435.69L328.334 431.929L333.646 427.796L342.5 425.042L355.547 417.642L366.878 407.483L366.887 407.476L380.403 395.919L392.828 384.085L399.435 382.283L399.461 382.279L408.146 380.928L413.705 375.949L417.352 371.688H447.965L450.964 375.115V388.887L449.766 392.68L449.763 392.686L448.187 397.415L445.866 402.443V426.025L440.487 432.801L435.048 441.152L432.331 450.664L431.159 457.89L431.157 457.899L431.155 457.908L429.587 465.554L428.584 470.214V477.601L425.03 481.537L417.753 483.728L413.627 486.137L411.065 490.153L415.985 497.533L423.804 507.699L429.444 513.921L438.959 520.764L445.617 524.269L449.853 528.635L449.865 528.649L453.485 533.042V543.964L451.477 545.719V549.851L449.937 554.471L447.048 560.25L449.825 563.489L455.598 567.755L458.689 571.352L460.76 575.497L462.437 571.295L466.318 568.961L472.029 565.237L474.949 561.83L477.144 556.463V543.898L474.885 540.635V536.261H477.281L479.981 528.647L495.818 517.838L499.247 510.722L502.008 497.67L507.262 486.672V470.247H509.312L511.304 462.267L513.035 458.805V450.498L511.384 447.432L509.236 445.868L507.275 428.935L503.732 422.262L503.348 397.037L504.345 395.628L503.351 393.458V375.99L502.931 393.465L501.896 395.689L502.949 398.206L501.83 405.093L499.381 408.635L494.244 409.866H489.8L489.808 395.741L486.867 384.961L486.863 375.987L491.695 373.572L493.891 369.58L509.473 367.016L516.935 360.702L519.848 353.906L523.927 347.583H534.145L536.779 357.713L539.078 364.226L542.398 366.716L543.988 362.682L546.964 360.52H556.205V367.771L556.472 365.901L560.423 360.495L580.269 362.53L588.446 369.134L593.389 384.624L595.948 465.334H602.528V383.623L607.897 371.742L615.149 364.44H624.268L632.077 368.139V372.246L628.628 374.779H621.932L619.627 380.628L624.211 384.153L631.287 380.428L636.996 371.545L652.022 371.546L655.477 361.482L661.722 356.157H675.528V420.359H682.829V356.157H761.021V317.886H556.254V302.816L539.639 288.284L471.059 288.284L467.358 283.099L459.011 277.706L459.025 265.538L462.446 258.163L462.45 258.156L467.267 248.675L467.271 248.669L471.07 240.883L478.494 243.716L488.42 249.576L494.417 253.504L505.387 257.897L523.595 257.902L537.322 255.791L542.231 253.526L545.87 250.236H551.183L555.192 252.143V264.279L543.497 271.087H545.148L555.681 265.192L567.077 271.794V286.131H567.895V271.794L556.254 264.279V253.6L560.276 252.042L563.339 248.698V238.187L560.385 236.575L553.196 235.132L549.154 236.566L545.172 238.284L542.812 241.825L537.566 244.602H521.854L517.988 241.702L517.997 234.296L526.875 231.853L535.009 226.035L539.403 217.831L539.409 217.82L539.415 217.81L550.72 199.069L556.254 194.415V171.298L552.697 161.812V152.094L556.191 147.143L554.333 142.628H544.553L542.131 136.876L537.347 134.625H527.151L520.21 136.938L506.415 150.44L502.832 158.204L490.282 165.376L479.149 174.101L470.908 171.557L470.91 146.959L486.324 136.288V129.873L491.592 121.653L484.584 102.367L469.252 81.4275L459.612 74.1242L446.818 71.7442V71.7442C443.044 67.5533 438.826 63.7837 434.24 60.5016L433.719 60.1291C426.896 55.2459 419.379 51.4134 411.419 48.7592L400.345 45.0666L391.62 40.5574L386.612 34.2329L385.472 43.2825V52.1137C385.472 54.4155 386.431 56.6131 388.119 58.1779V58.1779L388.497 58.2193C397.897 59.2483 407.09 61.682 415.768 65.4393V65.4393L431.267 76.2206L429.307 75.557L428.316 75.1129C416.103 69.6381 403.382 65.3762 390.336 62.3887V62.3887L381.594 61.179L368.636 53.4247L372.656 64.1845C372.832 64.656 373.046 65.1126 373.295 65.55L377.544 73.0171C379.069 75.6963 382.149 77.0848 385.166 76.4532V76.4532C385.901 76.2994 386.657 76.2801 387.399 76.3963L396.411 77.8075C399.221 78.2476 401.995 78.901 404.706 79.7619L407.388 80.6131C413.688 82.6135 419.758 85.2798 425.493 88.5669L427.047 89.4575L426.7 90.3114L416.692 87.7286C402.179 83.9832 387.34 81.6377 372.379 80.724V80.724L358.935 74.3146L370.436 93.8197L374.269 95.9608L381.681 93.6993H392.985L418.886 100.822L418.763 101.736H412.108L402.677 99.9546L392.897 98.9142H367.68L359.598 96.9194L359.578 96.915L349.392 94.8596L356.699 104.729L367.906 116.039L374.109 115.28L378.141 113.876H388.119L398.679 115.27H406.738L406.767 118.979L384.217 118.979L377.32 120.547H359.642L351.863 118.97L351.855 118.968L344.386 117.299L352.27 126.111L361.775 133.138H368.54L375.375 131.712H392.182L399.688 133.355L396.905 135.625H386.702L379.028 136.966L379.014 136.969L372.293 138.356L363.069 137.166L375.551 148.165L381.594 146.762L385.814 144.685L392.894 143.83H401.287L401.481 144.718L395.09 147.648L387.802 149.107L384.324 151.802H380.033L387.817 159.834L387.82 159.835C387.864 159.837 387.916 159.842 387.976 159.846C388.066 159.852 388.173 159.86 388.294 159.866C388.695 159.888 389.244 159.906 389.84 159.892C390.438 159.879 391.073 159.833 391.649 159.729C392.233 159.624 392.714 159.467 393.034 159.256C393.776 158.764 394.607 157.939 395.266 157.212C395.591 156.854 395.868 156.527 396.065 156.291C396.162 156.171 396.24 156.077 396.292 156.011C396.319 155.977 396.338 155.952 396.352 155.935L396.367 155.916L396.314 155.974L396.484 155.765L404.157 154.547L404.475 155.402L398.954 158.812L395.195 163.217L392.35 163.803L401.98 167.449L408.208 169.807L411.295 166.021L416.333 160.449L417.121 160.902L414.532 169.032L412.409 170.836L415.783 173.188L417.724 171.907L421.764 166.226L421.451 164.896L422.357 164.684L423.279 168.611L424.449 171.096H434.192L434.267 172.021L425.086 173.496L411.971 177.706L409.369 182.65ZM500.189 369.486L502.464 374.166L502.585 369.092L500.189 369.486ZM456.561 372.052L476.388 372.053V385.234L473.206 396.722L471.815 413.073L468.926 418.485L465.182 420.255L462.11 420.927L460.18 413.151V398.972L457.973 385.235L456.561 372.052ZM413.06 241.184L416.344 235.81H425.738L437.933 239.25L453.352 241.393V256.05L449.456 266.428V277.186L444.495 284.886H416.371L413.001 278.16L406.429 273.273V263.977L410.014 256.262L410.979 247.591L413.06 241.184ZM346.01 268.061L352.488 260.546L365.84 255.736L374.154 247.808L377.699 243.438L383.951 247.795L389.037 260.241V270.683L395.335 279.006V287.562H359.725L353.823 278.424L346.01 277.128V268.061ZM230.181 404.519L230.179 396.794L224.175 395.536L217.585 392.268H211.631L210.944 397.061L211.657 404.52L230.181 404.519ZM238.202 415.166L227.747 416.476L227.741 416.477L222.507 417.06L223.182 424.118H241.706L241.704 416.348L238.202 415.166ZM503.19 434.384L505.709 450.494L503.04 455.592V473.154L500.629 484.195L496.313 489.408L493.47 490.031V471.829L495.455 452.293L499.263 438.446L503.19 434.384ZM427.833 482.717L429.659 483.895L430.713 486.345V492.151L428.329 494.176H424.472L423.419 489.917L424.266 485.378L427.833 482.717Z" fill="url(#paint0_linear_75_18)"/>
<circle cx="458.639" cy="307.47" r="301.249" stroke="#2A459C" stroke-width="11"/>
</g>
<defs>
<linearGradient id="paint0_linear_75_18" x1="456.456" y1="34.2329" x2="456.456" y2="575.497" gradientUnits="userSpaceOnUse">
<stop offset="0.559856" stop-color="#2A459C"/>
<stop offset="0.560146" stop-color="#2A459C" stop-opacity="0.6"/>
</linearGradient>
</defs>
</svg>
